<?xml version="1.0" standalone="no"?>
<!DOCTYPE svg PUBLIC "-//W3C//DTD SVG 20010904//EN"
 "http://www.w3.org/TR/2001/REC-SVG-20010904/DTD/svg10.dtd">
<svg version="1.0" xmlns="http://www.w3.org/2000/svg"
 viewBox="0 0 512.000000 512.000000"
 preserveAspectRatio="xMidYMid meet">
<metadata>
Created by potrace 1.16, written by Peter Selinger 2001-2019
</metadata>
<g transform="translate(0.000000,512.000000) scale(0.100000,-0.100000)"
fill="#000" stroke="none">
<path d="M3029 4168 c-7 -13 -9 -41 -5 -76 4 -30 3 -76 0 -103 l-7 -49 -662 0
c-385 0 -705 -4 -764 -10 -263 -27 -461 -120 -641 -300 -243 -243 -361 -585
-330 -950 8 -89 13 -108 31 -122 12 -10 31 -18 43 -18 17 0 18 -2 6 -10 -12
-8 -11 -10 8 -10 15 0 22 6 22 19 0 35 11 53 25 41 10 -8 15 -6 20 10 6 19 8
19 28 5 26 -18 38 -19 61 -2 15 11 18 31 21 113 9 355 264 674 620 779 82 25
112 28 350 35 143 5 464 9 713 9 l452 1 0 -103 c0 -150 12 -156 140 -69 47 32
174 117 282 191 197 132 242 170 232 196 -3 7 -110 86 -237 176 -128 90 -265
187 -304 216 -40 29 -77 53 -83 53 -5 0 -14 -10 -21 -22z"/>
<path d="M4206 3463 c-6 -14 -5 -15 5 -6 7 7 10 15 7 18 -3 3 -9 -2 -12 -12z"/>
<path d="M4298 3380 c3 -22 -1 -29 -18 -35 -12 -4 -19 -9 -17 -12 3 -2 15 0
26 7 21 11 29 54 13 64 -5 3 -6 -8 -4 -24z"/>
<path d="M4140 3315 c-6 -8 -10 -20 -7 -27 3 -8 6 -6 6 5 1 10 11 22 24 27 15
6 17 9 6 9 -9 1 -22 -6 -29 -14z"/>
<path d="M4147 3258 c2 -5 13 -8 23 -8 10 0 21 3 23 8 3 4 -8 7 -23 7 -15 0
-26 -3 -23 -7z"/>
<path d="M4200 3195 c-10 -12 -9 -20 4 -40 9 -14 22 -25 30 -25 14 0 46 31 46
46 0 4 -7 -2 -16 -14 -8 -12 -22 -22 -30 -22 -19 0 -35 41 -22 58 6 6 8 12 5
12 -2 0 -10 -7 -17 -15z"/>
<path d="M4386 3167 c-38 -27 2 -95 42 -71 23 15 27 48 7 68 -20 19 -26 20
-49 3z"/>
<path d="M4268 3079 c-22 -12 -23 -38 -4 -64 12 -17 18 -18 40 -7 32 14 36 56
7 72 -23 12 -22 12 -43 -1z"/>
<path d="M1957 3073 c-4 -3 -7 -123 -7 -265 l0 -258 75 0 74 0 3 153 3 152 63
-102 c83 -134 87 -134 172 -2 l65 100 3 -150 3 -151 69 0 70 0 0 265 0 265
-74 0 -74 0 -66 -110 c-37 -60 -71 -112 -76 -115 -4 -3 -27 28 -51 68 -23 39
-55 91 -71 115 l-29 42 -73 0 c-40 0 -76 -3 -79 -7z"/>
<path d="M2650 2815 l0 -265 138 0 c92 0 155 5 186 14 114 35 175 109 184 224
6 87 -10 144 -55 193 -68 75 -150 99 -345 99 l-108 0 0 -265z m297 125 c85
-51 85 -199 0 -255 -13 -8 -54 -18 -91 -22 l-66 -6 0 152 0 151 63 0 c44 0 71
-6 94 -20z"/>
<path d="M4424 3026 c-16 -12 -17 -18 -6 -54 20 -65 82 -67 82 -3 0 49 -43 81
-76 57z"/>
<path d="M4290 2945 c-15 -18 -4 -52 21 -65 41 -23 81 34 47 68 -16 16 -53 15
-68 -3z"/>
<path d="M4440 2849 c-16 -28 12 -72 43 -67 28 4 46 50 27 72 -18 23 -57 20
-70 -5z"/>
<path d="M4310 2815 c-7 -8 -10 -25 -6 -39 11 -45 71 -45 82 0 8 30 -11 54
-41 54 -12 0 -28 -7 -35 -15z"/>
<path d="M4462 2734 c-25 -18 -29 -56 -7 -74 21 -17 31 -4 38 48 6 46 2 49
-31 26z"/>
<path d="M4324 2692 c-19 -12 -27 -52 -14 -67 26 -32 80 -11 80 30 0 37 -36
57 -66 37z"/>
<path d="M4541 2634 c0 -11 3 -14 6 -6 3 7 2 16 -1 19 -3 4 -6 -2 -5 -13z"/>
<path d="M4434 2572 c-12 -2 -30 -12 -39 -22 -16 -18 -20 -18 -46 -4 -26 13
-30 13 -49 -6 -26 -26 -25 -45 2 -64 26 -19 29 -78 4 -105 -9 -10 -16 -23 -16
-29 0 -7 -6 -12 -13 -12 -14 0 -41 -39 -33 -47 3 -3 -2 -20 -11 -37 -10 -17
-17 -35 -18 -41 0 -5 -7 -10 -16 -10 -8 0 -29 -16 -46 -35 -79 -89 -119 -125
-170 -151 -31 -16 -60 -26 -65 -23 -4 3 -7 0 -6 -7 3 -14 -70 -68 -93 -69 -21
0 -97 -60 -77 -60 8 0 43 9 78 21 285 93 516 324 619 617 26 72 25 88 -5 84z"/>
<path d="M816 2524 c-23 -23 -20 -51 9 -70 23 -15 27 -15 50 0 14 9 25 25 25
36 0 24 -26 50 -50 50 -10 0 -26 -7 -34 -16z"/>
<path d="M671 2486 c-22 -26 -9 -69 22 -80 36 -13 61 2 65 38 4 35 -14 56 -48
56 -15 0 -33 -6 -39 -14z"/>
<path d="M4476 2435 c-9 -26 -7 -32 5 -12 6 10 9 21 6 23 -2 3 -7 -2 -11 -11z"/>
<path d="M2347 2315 c93 -99 112 -115 140 -115 25 0 38 8 64 41 l32 41 -74 74
-73 74 -99 0 -98 0 108 -115z"/>
<path d="M2543 2414 c-4 -10 8 -30 33 -55 21 -21 41 -39 45 -39 16 0 87 82 82
96 -8 21 -151 20 -160 -2z"/>
<path d="M2736 2358 c-36 -40 -66 -78 -66 -84 0 -19 69 -74 93 -74 21 0 55 31
197 183 l44 47 -101 0 -101 0 -66 -72z"/>
<path d="M848 2375 c-10 -22 -9 -29 10 -47 18 -19 25 -20 47 -10 43 20 31 82
-16 82 -22 0 -32 -7 -41 -25z"/>
<path d="M733 2340 c-48 -19 -31 -90 22 -90 44 0 61 52 27 83 -21 19 -19 19
-49 7z"/>
<path d="M906 2264 c-21 -20 -20 -37 2 -57 24 -22 45 -21 67 3 17 18 17 21 1
45 -19 28 -47 32 -70 9z"/>
<path d="M4355 2194 c-9 -15 -12 -23 -6 -20 11 7 35 46 28 46 -3 0 -12 -12
-22 -26z"/>
<path d="M781 2193 c-26 -18 -27 -45 -3 -66 25 -22 45 -21 67 3 37 40 -19 95
-64 63z"/>
<path d="M970 2130 c-23 -44 34 -88 71 -54 24 21 24 36 1 57 -25 23 -59 21
-72 -3z"/>
<path d="M2035 2053 c-96 -64 -347 -227 -477 -310 -59 -37 -110 -73 -112 -79
-3 -7 1 -19 7 -27 28 -34 648 -478 665 -475 15 3 17 19 20 126 l3 122 702 0
c422 0 735 4 785 10 166 21 356 94 467 180 55 42 147 126 128 116 -6 -4 -14 3
-18 14 -8 24 -18 25 -35 5 -19 -23 -30 -18 -20 11 7 16 7 23 0 19 -6 -3 -10
-13 -10 -21 0 -8 -7 -14 -15 -14 -19 0 -19 14 0 30 13 11 12 16 -9 36 -14 15
-30 22 -40 18 -12 -5 -15 -2 -9 12 5 14 3 16 -11 11 -10 -4 -15 -3 -11 3 3 6
-1 13 -9 16 -9 3 -14 10 -11 14 7 11 -33 -1 -125 -38 -138 -55 -218 -65 -460
-59 -118 4 -282 11 -365 16 -82 5 -253 11 -380 12 -126 1 -246 4 -265 7 l-35
6 30 7 c17 4 84 7 150 8 77 1 131 7 150 16 26 12 -3 13 -240 14 -148 1 -287 4
-307 7 l-37 7 -3 111 c-2 89 -6 111 -18 113 -8 2 -46 -18 -85 -44z m1803 -269
c-9 -10 -21 -13 -29 -8 -9 5 -8 9 7 15 31 12 39 10 22 -7z m-191 -30 c-3 -3
-12 -4 -19 -1 -8 3 -5 6 6 6 11 1 17 -2 13 -5z m478 -43 c3 -6 -3 -15 -14 -20
-16 -9 -18 -8 -14 9 6 21 18 26 28 11z"/>
<path d="M855 2060 c-16 -17 -17 -23 -5 -45 17 -32 38 -39 66 -20 29 19 31 46
6 68 -25 22 -45 21 -67 -3z"/>
<path d="M4234 2038 l-19 -23 23 19 c12 11 22 21 22 23 0 8 -8 2 -26 -19z"/>
<path d="M1065 2024 c-22 -22 -15 -45 17 -64 26 -14 29 -13 49 7 21 21 21 23
5 47 -19 30 -47 33 -71 10z"/>
<path d="M4291 1977 c-13 -21 -12 -21 5 -5 10 10 16 20 13 22 -3 3 -11 -5 -18
-17z"/>
<path d="M958 1925 c-9 -21 -8 -28 7 -45 31 -34 85 -21 85 21 0 48 -72 67 -92
24z"/>
<path d="M1174 1929 c-20 -22 -13 -43 19 -63 42 -26 76 40 35 68 -29 20 -31
20 -54 -5z"/>
<path d="M4119 1933 c-13 -16 -12 -17 4 -4 16 13 21 21 13 21 -2 0 -10 -8 -17
-17z"/>
<path d="M3810 1930 c-9 -6 -10 -10 -3 -10 6 0 15 5 18 10 8 12 4 12 -15 0z"/>
<path d="M1296 1854 c-31 -30 -8 -69 36 -62 30 4 38 46 12 65 -23 17 -29 16
-48 -3z"/>
<path d="M1092 1838 c-18 -18 -14 -56 7 -68 27 -14 37 -13 55 6 21 20 20 30
-4 54 -23 23 -41 25 -58 8z"/>
<path d="M988 433 c7 -3 16 -2 19 1 4 3 -2 6 -13 5 -11 0 -14 -3 -6 -6z"/>
<path d="M1048 423 c12 -2 30 -2 40 0 9 3 -1 5 -23 4 -22 0 -30 -2 -17 -4z"/>
<path d="M1188 413 c29 -2 74 -2 100 0 26 2 2 3 -53 3 -55 0 -76 -1 -47 -3z"/>
<path d="M1403 413 c9 -2 25 -2 35 0 9 3 1 5 -18 5 -19 0 -27 -2 -17 -5z"/>
<path d="M1518 413 c29 -2 74 -2 100 0 26 2 2 3 -53 3 -55 0 -76 -1 -47 -3z"/>
<path d="M1728 413 c29 -2 74 -2 100 0 26 2 2 3 -53 3 -55 0 -76 -1 -47 -3z"/>
<path d="M2123 413 c9 -2 25 -2 35 0 9 3 1 5 -18 5 -19 0 -27 -2 -17 -5z"/>
<path d="M2263 413 c26 -2 68 -2 95 0 26 2 4 3 -48 3 -52 0 -74 -1 -47 -3z"/>
<path d="M2463 413 c9 -2 25 -2 35 0 9 3 1 5 -18 5 -19 0 -27 -2 -17 -5z"/>
<path d="M2593 413 c26 -2 67 -2 90 0 23 2 2 3 -48 3 -49 0 -68 -1 -42 -3z"/>
<path d="M2788 413 c6 -2 18 -2 25 0 6 3 1 5 -13 5 -14 0 -19 -2 -12 -5z"/>
<path d="M3008 413 c23 -2 61 -2 85 0 23 2 4 4 -43 4 -47 0 -66 -2 -42 -4z"/>
<path d="M3438 413 c17 -2 47 -2 65 0 17 2 3 4 -33 4 -36 0 -50 -2 -32 -4z"/>
<path d="M3587 413 c18 -2 50 -2 70 0 21 2 7 4 -32 4 -38 0 -55 -2 -38 -4z"/>
<path d="M3748 413 c6 -2 18 -2 25 0 6 3 1 5 -13 5 -14 0 -19 -2 -12 -5z"/>
<path d="M3877 413 c18 -2 50 -2 70 0 21 2 7 4 -32 4 -38 0 -55 -2 -38 -4z"/>
</g>
</svg>
