<?xml version="1.0" standalone="no"?>
<!DOCTYPE svg PUBLIC "-//W3C//DTD SVG 20010904//EN"
 "http://www.w3.org/TR/2001/REC-SVG-20010904/DTD/svg10.dtd">
<svg version="1.0" xmlns="http://www.w3.org/2000/svg"
 viewBox="0 0 512.000000 512.000000"
 preserveAspectRatio="xMidYMid meet">
<metadata>
Created by potrace 1.16, written by Peter Selinger 2001-2019
</metadata>
<g transform="translate(0.000000,512.000000) scale(0.100000,-0.100000)"
fill="#000" stroke="none">
<path d="M0 2560 l0 -2560 2560 0 2560 0 0 2560 0 2560 -2560 0 -2560 0 0
-2560z m2823 1513 c-7 -2 -21 -2 -30 0 -10 3 -4 5 12 5 17 0 24 -2 18 -5z
m100 0 c-7 -2 -21 -2 -30 0 -10 3 -4 5 12 5 17 0 24 -2 18 -5z m-1495 -8 c-9
-10 -47 -14 -52 -6 -3 4 9 8 27 9 17 2 28 0 25 -3z m110 -2 c-10 -2 -28 -2
-40 0 -13 2 -5 4 17 4 22 1 32 -1 23 -4z m2327 -123 c18 -20 18 -21 -1 -35
-10 -8 -27 -15 -37 -15 -10 0 -15 -4 -12 -10 3 -5 -1 -10 -9 -10 -8 0 -18 5
-22 12 -5 7 -3 8 7 3 12 -8 12 -6 0 8 -15 19 -36 24 -25 6 4 -8 0 -8 -15 0
-23 13 -29 23 -8 15 8 -3 18 6 25 21 15 32 70 35 97 5z m124 -23 c6 -8 8 -17
4 -21 -4 -4 0 -4 10 0 13 5 17 1 17 -21 0 -18 -4 -25 -12 -22 -9 3 -13 -6 -14
-24 -1 -16 5 -30 14 -34 10 -4 12 0 8 11 -9 24 15 39 67 41 42 1 46 -1 35 -15
-11 -13 -10 -15 5 -9 14 5 17 0 17 -33 0 -22 5 -40 11 -40 5 0 7 5 4 10 -4 6
12 10 42 10 31 0 43 -3 34 -9 -11 -7 -9 -10 7 -15 17 -6 20 -13 15 -37 -3 -18
-1 -29 6 -29 6 0 11 -4 11 -9 0 -5 -9 -7 -20 -4 -11 3 -20 1 -20 -5 0 -11 66
-29 85 -23 5 1 24 0 43 -4 l34 -6 -4 -52 -3 -52 33 -3 c17 -2 32 -7 32 -12 0
-4 8 -6 19 -3 24 6 36 -13 20 -33 -10 -12 -9 -13 6 -7 14 5 17 3 13 -9 -7 -16
20 -78 33 -78 5 0 9 -8 9 -18 0 -10 3 -21 6 -25 4 -3 16 -36 28 -71 16 -47 19
-69 12 -77 -8 -9 -8 -10 2 -5 8 5 14 -3 18 -23 4 -17 10 -31 14 -31 5 0 14
-16 20 -36 10 -29 10 -38 0 -44 -7 -4 -8 -10 -2 -13 5 -4 12 -49 16 -102 4
-53 12 -108 17 -124 7 -19 6 -37 -2 -57 l-12 -29 -7 25 c-5 20 -8 13 -14 -35
-20 -155 -78 -342 -153 -486 -195 -379 -582 -664 -980 -724 -63 -10 -164 -14
-283 -14 -198 2 -458 14 -375 18 39 2 45 4 29 11 -28 11 -74 54 -74 69 0 6 -4
11 -10 11 -5 0 -10 5 -10 11 0 6 -9 24 -21 40 -19 27 -19 29 -2 30 10 1 0 5
-22 10 -22 4 -200 9 -395 10 -195 1 -345 4 -333 6 21 4 37 34 32 59 -4 23 3
33 29 37 15 2 -5 5 -44 6 -90 1 -110 19 -107 93 1 28 7 56 13 63 8 9 8 15 0
20 -5 3 -10 14 -10 23 -1 50 -34 52 -84 5 -26 -24 -105 -45 -92 -24 3 4 52 41
110 81 58 40 103 77 99 82 -3 6 -9 6 -15 0 -12 -12 -38 8 -38 27 0 24 59 11
89 -19 29 -30 30 -35 33 -128 l3 -97 55 -6 55 -6 -52 -1 c-28 -1 -59 -5 -68
-8 -15 -6 -16 5 -13 103 2 77 -1 114 -9 122 -16 14 -26 14 -17 -1 4 -6 6 -64
5 -129 -3 -161 -3 -160 110 -157 49 2 89 7 88 13 -1 17 34 22 146 24 61 1 166
6 235 12 69 5 296 9 505 9 209 -1 386 -1 393 0 7 0 10 5 7 10 -3 6 5 10 19 10
13 0 26 -5 28 -10 2 -7 15 -7 38 0 19 5 43 7 54 4 12 -4 16 -2 12 5 -4 7 2 11
16 11 69 1 98 4 98 11 0 5 7 6 15 3 8 -4 17 1 21 10 3 9 10 16 16 16 5 0 7 -4
4 -9 -4 -5 3 -7 14 -4 25 7 16 23 -12 23 -31 0 -19 6 25 13 33 5 37 4 27 -8
-14 -16 -10 -18 14 -9 9 3 13 11 9 17 -3 6 -1 7 5 3 43 -26 281 174 367 308
63 99 105 211 82 219 -6 2 -7 14 -3 30 3 15 10 25 15 23 5 -3 8 1 7 9 0 7 3
14 8 14 14 -1 27 28 20 45 -9 23 -22 20 -27 -6 -2 -13 -4 1 -4 30 0 28 4 52 9
52 4 0 8 14 8 30 0 22 -5 30 -18 30 -26 0 -62 29 -62 50 0 22 27 33 63 26 19
-3 24 -1 20 10 -3 8 -16 14 -30 14 -13 0 -21 4 -18 10 3 6 -3 10 -13 10 -23 0
-36 38 -20 57 6 7 23 13 39 13 50 0 35 27 -20 34 -32 4 -51 12 -55 23 -8 20 2
55 14 48 5 -3 15 2 23 10 9 8 21 15 27 15 6 0 10 6 7 13 -2 8 -19 11 -49 9
-70 -5 -95 47 -35 76 23 11 27 19 27 53 0 50 -27 56 -32 7 -3 -30 -6 -33 -40
-36 -40 -3 -78 12 -78 31 1 20 49 49 78 45 24 -3 27 0 28 27 1 57 4 62 26 61
11 0 23 6 25 14 4 13 3 13 -6 0 -9 -13 -11 -12 -12 5 -1 13 -3 15 -5 5 -4 -11
-16 -14 -54 -12 -32 3 -50 0 -50 -7 0 -6 5 -11 10 -11 6 0 10 -16 10 -35 0
-32 -2 -35 -31 -35 -17 0 -28 -4 -24 -10 4 -6 -5 -10 -19 -10 -24 0 -26 3 -26
46 0 37 4 47 20 51 11 3 17 9 14 14 -3 5 5 9 17 9 18 0 20 3 11 12 -20 20 -14
40 11 36 13 -2 22 -10 21 -19 -1 -9 5 -16 12 -16 17 0 18 9 2 25 -9 9 -9 18 0
37 17 36 15 44 -7 38 -14 -3 -18 -12 -15 -27 2 -15 -1 -23 -11 -23 -8 0 -15 7
-15 15 0 12 -12 14 -62 9 -35 -3 -53 -3 -40 0 20 4 22 9 16 36 -8 40 -4 37
-39 29 -26 -6 -30 -11 -30 -42 0 -33 -2 -35 -38 -38 -38 -3 -77 18 -77 41 0
15 33 36 58 37 12 0 22 6 23 13 0 6 2 19 3 27 2 8 -1 26 -5 40 -9 25 -9 25 -5
-2 2 -16 -1 -28 -5 -28 -5 0 -9 13 -9 28 0 26 -2 28 -35 24 -50 -6 -85 19 -85
61 0 43 13 61 39 54 12 -3 19 -2 16 3 -6 9 19 20 46 20 21 0 25 15 7 26 -7 5
-8 3 -3 -7 8 -12 6 -12 -8 0 -22 17 -22 59 0 83 19 21 85 25 102 5z m101 -47
c0 -5 -11 -10 -25 -10 -14 0 -25 5 -25 10 0 6 11 10 25 10 14 0 25 -4 25 -10z
m-302 -92 c-6 -18 -28 -21 -28 -4 0 9 7 16 16 16 9 0 14 -5 12 -12z m-45 -25
c-18 -6 -3 -33 18 -33 10 0 19 -7 19 -15 0 -8 -7 -15 -15 -15 -9 0 -15 -9 -15
-24 0 -27 -26 -59 -41 -51 -5 4 -9 2 -9 -3 0 -10 -84 -64 -96 -62 -3 1 -12 -7
-20 -17 -7 -10 -14 -15 -14 -11 0 4 -9 0 -20 -10 -12 -9 -22 -15 -23 -12 -1 3
-13 -5 -26 -17 -13 -12 -28 -20 -32 -18 -4 3 -10 -3 -13 -13 -3 -10 -22 -24
-41 -31 -19 -6 -48 -25 -64 -42 -16 -16 -35 -29 -43 -29 -7 0 -28 -9 -45 -20
-18 -11 -33 -18 -33 -15 0 2 -12 -7 -26 -20 -49 -45 -142 -85 -200 -85 l-52 0
-8 103 c-5 56 -9 110 -8 120 1 16 -36 17 -685 16 -676 -1 -766 -3 -756 -19 7
-12 -47 -22 -98 -20 -60 4 -67 2 -67 -15 0 -11 -10 -14 -37 -13 -22 0 -56 -8
-79 -20 -23 -12 -44 -18 -48 -15 -3 4 -6 2 -6 -4 0 -5 -11 -15 -25 -21 -17 -8
-23 -16 -18 -28 5 -14 1 -16 -25 -12 -18 2 -30 3 -28 0 3 -2 -22 -26 -55 -53
-32 -28 -66 -61 -75 -74 -9 -14 -21 -22 -27 -18 -5 3 -7 1 -4 -4 4 -6 -2 -22
-13 -36 -11 -14 -20 -30 -20 -36 0 -6 -4 -11 -8 -11 -5 0 -16 -16 -25 -36 -11
-23 -21 -33 -30 -28 -8 5 -7 2 2 -9 8 -10 9 -17 3 -17 -6 0 -12 -10 -14 -22
-2 -13 -9 -22 -15 -21 -7 2 -10 -3 -7 -10 3 -8 -5 -48 -16 -90 -15 -56 -19
-90 -14 -123 5 -34 4 -45 -5 -40 -13 8 -16 -56 -3 -68 4 -4 7 -30 7 -57 0 -32
5 -53 14 -58 8 -5 11 -16 7 -26 -7 -20 13 -95 26 -95 4 0 8 -9 8 -20 0 -11 5
-20 10 -20 6 0 10 -13 10 -28 0 -16 9 -39 20 -52 11 -13 20 -28 20 -34 0 -6
-5 -4 -10 4 -5 8 -10 11 -10 5 0 -5 -5 -4 -12 3 -22 22 -67 14 -80 -13 -9 -21
-8 -28 7 -45 19 -21 54 -26 71 -11 5 6 16 4 28 -5 11 -8 15 -14 8 -14 -38 0
-70 -71 -37 -84 9 -3 12 -12 8 -21 -5 -14 0 -15 32 -9 47 9 91 30 74 36 -9 3
-8 6 4 11 11 4 17 1 17 -8 0 -10 11 -15 36 -15 21 0 33 -4 29 -10 -3 -5 -1
-10 6 -10 7 0 9 -3 6 -7 -4 -3 -19 0 -33 7 -22 13 -29 12 -54 -2 -16 -9 -39
-13 -55 -11 -24 5 -26 3 -23 -22 2 -20 13 -34 38 -48 36 -21 125 -33 115 -16
-4 5 1 12 9 15 9 3 16 16 17 28 0 14 2 16 6 6 3 -8 11 -18 17 -22 8 -6 6 -11
-4 -18 -8 -5 -11 -10 -7 -10 5 0 2 -7 -7 -15 -8 -8 -32 -15 -56 -15 -25 0 -39
-4 -35 -10 3 -5 15 -10 26 -10 10 0 19 -4 19 -10 0 -14 27 -13 32 2 3 7 12 3
24 -10 23 -25 84 -41 84 -23 0 6 9 11 21 11 11 0 17 -4 14 -10 -3 -5 -1 -10 5
-10 6 0 8 -4 5 -10 -10 -16 -23 -12 -27 8 -3 15 -6 14 -16 -5 -11 -21 -11 -23
9 -23 16 0 20 -5 16 -20 -4 -16 0 -20 18 -20 13 0 26 -7 29 -16 9 -23 -3 -32
-17 -13 -13 18 -52 18 -69 1 -19 -19 6 -62 37 -62 14 0 25 5 25 11 0 5 5 7 10
4 6 -3 10 0 10 7 0 8 8 14 18 14 10 0 19 -6 19 -13 0 -7 -4 -10 -9 -7 -4 3 -8
-2 -8 -10 0 -9 5 -16 11 -16 5 0 8 -4 5 -9 -3 -4 7 -14 22 -20 15 -7 72 -45
127 -85 55 -40 207 -150 337 -244 130 -95 240 -172 245 -172 32 1 38 21 43
147 l5 128 755 6 c663 5 767 7 850 23 179 33 355 105 510 209 104 69 253 224
319 331 68 110 125 248 124 301 0 25 2 33 6 21 12 -33 35 91 41 219 0 6 9 -3
19 -19 17 -25 20 -26 25 -10 3 11 3 3 0 -16 -3 -19 -8 -52 -11 -74 -3 -21 -8
-34 -12 -28 -3 6 -6 -18 -7 -51 -1 -75 -16 -143 -31 -140 -6 1 -9 -6 -6 -17 3
-11 14 -20 24 -20 11 0 19 -7 19 -15 0 -9 -9 -15 -24 -15 -20 0 -27 -10 -45
-62 -13 -35 -30 -79 -39 -98 -9 -19 -15 -40 -14 -46 1 -7 -4 -14 -13 -18 -8
-3 -15 -15 -15 -26 0 -11 -4 -20 -9 -20 -4 0 -20 -18 -35 -40 -15 -22 -33 -48
-41 -58 -9 -9 -15 -21 -15 -25 1 -5 -10 -17 -24 -28 -14 -11 -28 -28 -31 -39
-4 -11 -12 -20 -19 -20 -8 0 -19 -7 -26 -15 -7 -8 -16 -12 -21 -9 -5 3 -8 0
-7 -8 2 -7 -3 -12 -10 -10 -8 1 -11 -1 -8 -6 5 -9 -106 -96 -118 -93 -9 2 -46
-37 -46 -48 0 -5 -12 -11 -27 -13 -56 -10 -86 -25 -76 -40 2 -5 -7 -9 -21 -9
-35 -2 -38 -3 -61 -16 -11 -7 -15 -13 -10 -13 29 -1 -26 -20 -60 -20 -23 0
-35 -4 -28 -8 18 -11 -96 -43 -148 -41 -85 3 -199 -13 -199 -27 0 -9 -12 -14
-35 -14 -19 0 -35 5 -35 10 0 6 -25 10 -56 10 -32 0 -53 -4 -49 -10 3 -6 -202
-9 -559 -8 -311 1 -563 5 -560 10 3 4 -24 8 -60 8 l-66 0 1 -32 c2 -31 2 -31
6 -5 4 25 7 27 51 26 30 -1 37 -4 20 -6 -16 -2 -28 -9 -28 -14 0 -5 -7 -9 -16
-9 -12 0 -15 -6 -10 -24 8 -31 -4 -147 -14 -141 -5 3 -6 -3 -3 -14 10 -41 -86
-68 -140 -39 -12 6 -55 37 -96 70 -40 32 -82 58 -92 58 -11 0 -19 6 -19 14 0
19 -98 96 -122 96 -11 0 -22 10 -28 25 -7 18 -17 25 -35 25 -19 0 -25 5 -23
18 2 12 -5 18 -22 20 -15 2 -30 12 -35 25 -6 12 -20 23 -33 25 -12 2 -20 8
-17 13 4 5 -5 9 -19 9 -16 0 -26 6 -26 15 0 8 -9 15 -20 15 -12 0 -17 5 -14
13 3 10 -5 12 -31 9 -21 -3 -35 0 -35 7 0 6 5 11 12 11 14 0 2 13 -15 16 -7 1
-25 7 -42 14 -16 6 -32 12 -35 12 -3 0 -14 5 -25 11 -11 6 -31 13 -44 15 -13
1 -30 10 -38 18 -8 7 -18 14 -22 14 -4 0 -17 9 -29 20 -12 12 -22 18 -22 15 0
-3 -10 1 -22 9 -12 9 -33 16 -46 16 -15 0 -22 5 -19 13 4 14 -54 57 -79 57
-10 0 -14 5 -11 14 3 8 -1 17 -9 20 -9 3 -12 11 -9 16 4 6 3 10 -2 9 -20 -3
-46 2 -40 8 11 10 -14 33 -35 33 -13 0 -18 5 -15 14 7 17 -23 46 -46 46 -12 0
-17 8 -17 26 0 14 -4 23 -10 19 -5 -3 -18 12 -30 35 -11 22 -27 40 -35 40 -9
0 -15 9 -15 23 0 12 -7 33 -16 45 -8 12 -12 27 -8 34 4 6 3 8 -3 5 -13 -8 -43
29 -43 53 0 11 -4 20 -10 20 -5 0 -10 9 -10 19 0 11 -7 26 -15 35 -8 8 -15 20
-15 27 0 13 -16 67 -31 104 -4 11 -10 38 -14 60 -3 22 -9 51 -12 64 -4 17 -2
22 6 17 6 -4 11 -3 11 2 0 6 -7 12 -15 16 -15 5 -22 56 -7 56 19 -1 30 -19 42
-68 13 -55 31 -82 52 -78 30 5 77 37 83 56 4 11 18 33 32 48 19 20 23 34 19
57 -4 24 -3 26 5 13 12 -21 62 -24 77 -5 5 6 10 39 10 72 0 174 51 373 128
501 138 230 340 377 611 447 87 22 93 22 863 22 l775 0 3 -109 c3 -109 11
-136 39 -136 8 0 141 86 296 192 155 105 292 193 305 196 12 2 22 9 22 14 0 5
5 6 12 2 9 -6 9 -9 1 -11z m537 -48 c0 -8 -2 -15 -4 -15 -2 0 -6 7 -10 15 -3
8 -1 15 4 15 6 0 10 -7 10 -15z m-429 -65 c21 -12 25 -50 7 -68 -13 -13 -49
-15 -85 -6 -16 5 -23 14 -23 32 0 43 55 66 101 42z m-3261 -64 c0 -3 -4 -8
-10 -11 -5 -3 -10 -1 -10 4 0 6 5 11 10 11 6 0 10 -2 10 -4z m3500 -101 c0 -8
-4 -15 -9 -15 -5 0 -11 -10 -13 -22 -6 -42 -91 -35 -102 8 -9 35 5 44 72 44
40 0 52 -4 52 -15z m-2330 -269 c0 -2 -9 -6 -20 -9 -11 -3 -18 -1 -14 4 5 9
34 13 34 5z m763 -3 c-7 -2 -19 -2 -25 0 -7 3 -2 5 12 5 14 0 19 -2 13 -5z
m-556 -25 c-3 -8 -6 -5 -6 6 -1 11 2 17 5 13 3 -3 4 -12 1 -19z m-997 -63 c0
-9 -9 -15 -25 -15 -16 0 -25 6 -25 15 0 9 9 15 25 15 16 0 25 -6 25 -15z
m3303 -2 c-7 -2 -21 -2 -30 0 -10 3 -4 5 12 5 17 0 24 -2 18 -5z m-1826 -175
c-3 -8 -6 -5 -6 6 -1 11 2 17 5 13 3 -3 4 -12 1 -19z m0 -50 c-3 -7 -5 -2 -5
12 0 14 2 19 5 13 2 -7 2 -19 0 -25z m-210 -100 c-3 -8 -6 -5 -6 6 -1 11 2 17
5 13 3 -3 4 -12 1 -19z m210 0 c-3 -8 -6 -5 -6 6 -1 11 2 17 5 13 3 -3 4 -12
1 -19z m388 -28 c-3 -5 -12 -10 -18 -10 -7 0 -6 4 3 10 19 12 23 12 15 0z
m-388 -22 c-3 -8 -6 -5 -6 6 -1 11 2 17 5 13 3 -3 4 -12 1 -19z m2242 -125
c-1 -74 -4 -95 -9 -68 -6 38 -6 39 -11 10 -2 -16 -4 13 -4 65 -1 55 2 82 6 65
l7 -30 1 33 c0 17 3 32 6 32 3 0 4 -48 4 -107z m-2242 65 c-3 -7 -5 -2 -5 12
0 14 2 19 5 13 2 -7 2 -19 0 -25z m-354 -5 c-7 -2 -21 -2 -30 0 -10 3 -4 5 12
5 17 0 24 -2 18 -5z m354 -60 c-3 -10 -5 -2 -5 17 0 19 2 27 5 18 2 -10 2 -26
0 -35z m2202 -35 c0 -35 -3 -57 -6 -49 -5 11 -7 11 -15 0 -7 -10 -8 -8 -2 6 4
11 9 39 12 63 6 62 12 51 11 -20z m-2412 30 c-3 -8 -6 -5 -6 6 -1 11 2 17 5
13 3 -3 4 -12 1 -19z m733 18 c0 -2 -8 -10 -17 -17 -16 -13 -17 -12 -4 4 13
16 21 21 21 13z m-1181 -62 c12 -10 -16 -24 -50 -24 -32 0 -39 3 -39 20 0 18
4 20 43 14 23 -4 44 -8 46 -10z m161 -10 c0 -16 -12 -17 -61 -7 l-34 7 40 12
c44 12 55 10 55 -12z m321 8 c-7 -2 -18 1 -23 6 -8 8 -4 9 13 5 13 -4 18 -8
10 -11z m250 0 c-7 -2 -18 1 -23 6 -8 8 -4 9 13 5 13 -4 18 -8 10 -11z m319 8
c0 -5 -7 -10 -16 -10 -8 0 -12 5 -9 10 3 6 10 10 16 10 5 0 9 -4 9 -10z m-997
-17 c-7 -2 -21 -2 -30 0 -10 3 -4 5 12 5 17 0 24 -2 18 -5z m2473 -53 c0 -11
-4 -20 -8 -20 -10 0 -11 24 -1 33 9 9 9 10 9 -13z m-3775 -13 c-10 -9 -11 -8
-5 6 3 10 9 15 12 12 3 -3 0 -11 -7 -18z m1512 16 c-7 -2 -21 -2 -30 0 -10 3
-4 5 12 5 17 0 24 -2 18 -5z m135 -152 c73 -77 132 -142 132 -145 0 -3 -54 -6
-120 -6 -94 0 -127 4 -154 18 -30 15 -50 42 -47 63 0 4 -9 5 -19 2 -13 -3 -20
0 -20 8 0 18 -70 89 -88 89 -8 0 -12 6 -9 15 4 8 2 17 -4 20 -5 4 -7 11 -3 16
3 5 0 8 -8 7 -7 -2 -12 3 -10 10 1 6 -1 11 -5 11 -21 -3 -33 2 -33 16 0 13 21
15 128 15 l128 0 132 -139z m2117 109 c3 -5 1 -10 -4 -10 -6 0 -11 5 -11 10 0
6 2 10 4 10 3 0 8 -4 11 -10z m-1725 -53 c0 -2 -12 -14 -27 -28 l-28 -24 24
28 c23 25 31 32 31 24z m1700 -11 c0 -2 -7 -7 -16 -10 -8 -3 -12 -2 -9 4 6 10
25 14 25 6z m337 -38 c-3 -8 -6 -5 -6 6 -1 11 2 17 5 13 3 -3 4 -12 1 -19z
m-377 -8 c-6 -11 -12 -20 -14 -20 -2 0 -2 9 1 20 3 11 9 20 15 20 5 0 4 -9 -2
-20z m-1723 -52 c-3 -8 -6 -5 -6 6 -1 11 2 17 5 13 3 -3 4 -12 1 -19z m1694 9
c-6 -8 -8 -17 -4 -20 3 -4 1 -7 -5 -7 -15 0 -15 13 0 28 16 16 23 15 9 -1z
m-26 -47 c3 -5 1 -10 -4 -10 -6 0 -11 5 -11 10 0 6 2 10 4 10 3 0 8 -4 11 -10z
m-63 -66 c-23 -20 -40 -40 -36 -45 3 -5 -2 -9 -10 -9 -9 0 -16 2 -16 5 0 8 84
85 94 85 5 0 -9 -16 -32 -36z m-1722 16 c0 -5 -7 -10 -15 -10 -8 0 -15 5 -15
10 0 6 7 10 15 10 8 0 15 -4 15 -10z m-35 -20 c4 -6 -15 -10 -52 -9 -51 1 -54
2 -23 9 52 11 68 11 75 0z m-162 -7 c-24 -2 -62 -2 -85 0 -24 2 -5 4 42 4 47
0 66 -2 43 -4z m-304 -56 c-15 -14 -27 -19 -31 -12 -4 5 -1 11 7 13 8 2 15 8
15 13 0 5 7 9 17 9 13 0 11 -5 -8 -23z m-975 -23 c5 -14 4 -15 -9 -4 -17 14
-19 20 -6 20 5 0 12 -7 15 -16z m3101 -3 c-3 -6 -11 -11 -16 -11 -5 0 -4 6 3
14 14 16 24 13 13 -3z m-3065 -17 c0 -8 -4 -12 -10 -9 -5 3 -10 10 -10 16 0 5
5 9 10 9 6 0 10 -7 10 -16z m890 6 c0 -5 -5 -10 -11 -10 -5 0 -7 5 -4 10 3 6
8 10 11 10 2 0 4 -4 4 -10z m-37 -25 c-3 -9 -8 -14 -10 -11 -3 3 -2 9 2 15 9
16 15 13 8 -4z m2177 11 c0 -3 -4 -8 -10 -11 -5 -3 -10 -1 -10 4 0 6 5 11 10
11 6 0 10 -2 10 -4z m-2213 -32 c-3 -3 -12 -4 -19 -1 -8 3 -5 6 6 6 11 1 17
-2 13 -5z m-66 -57 c-10 -9 -11 -8 -5 6 3 10 9 15 12 12 3 -3 0 -11 -7 -18z
m-801 -27 c0 -11 -4 -20 -10 -20 -5 0 -10 9 -10 20 0 11 5 20 10 20 6 0 10 -9
10 -20z m740 -10 c0 -5 -7 -7 -15 -4 -8 4 -15 8 -15 10 0 2 7 4 15 4 8 0 15
-4 15 -10z m-494 -32 l19 -23 -25 20 c-14 11 -27 21 -29 22 -2 2 0 3 6 3 5 0
18 -10 29 -22z m1297 5 c-7 -2 -19 -2 -25 0 -7 3 -2 5 12 5 14 0 19 -2 13 -5z
m415 0 c-16 -2 -40 -2 -55 0 -16 2 -3 4 27 4 30 0 43 -2 28 -4z m145 0 c-13
-2 -35 -2 -50 0 -16 2 -5 4 22 4 28 0 40 -2 28 -4z m310 0 c-7 -2 -19 -2 -25
0 -7 3 -2 5 12 5 14 0 19 -2 13 -5z m70 0 c-7 -2 -21 -2 -30 0 -10 3 -4 5 12
5 17 0 24 -2 18 -5z m-1740 -61 c-42 -34 -74 -49 -41 -18 28 25 24 42 -6 30
-27 -10 -18 3 17 25 30 19 33 20 45 3 11 -15 9 -20 -15 -40z m-424 4 c-2 -2
-15 -9 -29 -16 -23 -12 -24 -12 -11 3 7 10 20 17 29 17 8 0 13 -2 11 -4z m61
-6 c0 -5 -2 -10 -4 -10 -3 0 -8 5 -11 10 -3 6 -1 10 4 10 6 0 11 -4 11 -10z
m33 -23 c3 -9 16 -12 37 -9 32 4 49 -8 50 -34 0 -17 -55 -37 -80 -29 -17 5
-19 9 -9 21 10 12 9 13 -4 8 -12 -4 -14 -1 -10 15 3 13 1 21 -6 21 -7 0 -9 5
-6 10 9 14 22 12 28 -3z m167 3 c0 -5 -4 -10 -9 -10 -5 0 -17 -7 -25 -16 -15
-14 -16 -14 -16 0 0 9 -4 16 -10 16 -5 0 -10 5 -10 10 0 6 16 10 35 10 19 0
35 -4 35 -10z m-237 -68 c15 -2 27 -8 27 -13 0 -14 -28 -11 -60 6 -32 17 -42
32 -12 20 9 -4 29 -10 45 -13z m37 -47 c0 -9 -9 -15 -25 -15 -16 0 -25 6 -25
15 0 9 9 15 25 15 16 0 25 -6 25 -15z m2243 -492 c-7 -2 -21 -2 -30 0 -10 3
-4 5 12 5 17 0 24 -2 18 -5z"/>
<path d="M3937 3809 c-47 -7 -52 -13 -30 -30 15 -12 16 -12 9 1 -4 8 0 6 8 -4
9 -11 16 -28 16 -38 0 -15 9 -18 48 -19 26 -1 59 0 75 1 15 1 27 -3 27 -9 0
-10 -21 -16 -43 -12 -5 1 -6 -3 -3 -8 3 -5 15 -7 26 -4 17 5 20 0 20 -27 0
-34 24 -39 26 -4 3 73 4 74 27 74 20 1 20 2 4 11 -13 7 -22 7 -31 0 -13 -11
-67 -8 -87 5 -8 4 -9 3 -5 -4 11 -18 -2 -14 -23 7 -11 11 -21 30 -23 43 -3 21
-7 23 -41 17z"/>
<path d="M3927 3694 c6 -16 13 -17 33 -4 16 11 15 11 -17 15 -14 1 -20 -2 -16
-11z"/>
<path d="M4193 3615 c-16 -17 -5 -55 16 -55 10 0 16 8 16 24 0 31 -17 47 -32
31z"/>
<path d="M4356 3620 c7 -8 14 -24 17 -35 4 -19 5 -19 6 1 0 12 -7 28 -16 35
-16 12 -17 12 -7 -1z"/>
<path d="M4055 3610 c3 -5 1 -10 -4 -10 -6 0 -11 -4 -11 -10 0 -17 19 -11 30
10 9 16 8 20 -5 20 -9 0 -13 -4 -10 -10z"/>
<path d="M4045 3560 c-3 -5 -1 -10 5 -10 6 0 8 -5 4 -12 -4 -7 -3 -8 4 -4 14
9 16 36 3 36 -6 0 -13 -4 -16 -10z"/>
<path d="M4209 3530 c25 -22 51 -26 51 -9 0 5 -4 8 -9 5 -5 -3 -11 1 -15 9 -3
8 -16 15 -28 15 l-23 -1 24 -19z"/>
<path d="M4276 3505 c4 -8 11 -15 16 -15 6 0 8 -14 5 -35 -3 -19 -2 -35 2 -35
12 0 32 74 21 78 -6 2 -8 8 -4 13 3 5 -6 9 -20 9 -18 0 -24 -4 -20 -15z"/>
<path d="M4396 3494 c-25 -24 -7 -83 25 -84 16 0 37 29 43 60 3 21 3 30 -3 22
-7 -11 -9 -11 -14 2 -8 20 -31 20 -51 0z"/>
<path d="M4256 3491 c-4 -7 -5 -15 -2 -18 9 -9 19 4 14 18 -4 11 -6 11 -12 0z"/>
<path d="M4290 3405 c0 -2 10 -10 23 -16 20 -11 21 -11 8 4 -13 16 -31 23 -31
12z"/>
<path d="M4321 3342 c-10 -18 -8 -21 9 -19 22 1 24 5 11 26 -7 11 -11 10 -20
-7z"/>
<path d="M4450 3341 c-15 -30 -12 -48 11 -65 47 -33 94 28 53 68 -21 22 -51
20 -64 -3z"/>
<path d="M4330 3270 c-11 -11 -20 -25 -20 -32 0 -6 7 -3 15 8 14 19 14 19 15
-3 0 -12 -6 -23 -12 -25 -8 -3 -5 -9 8 -16 16 -9 26 -8 42 4 27 19 28 45 4 67
-24 22 -28 21 -52 -3z"/>
<path d="M4508 3190 c-22 -18 -22 -20 -8 -47 28 -51 90 -34 76 22 -10 38 -39
49 -68 25z"/>
<path d="M4365 3130 c-18 -58 47 -92 75 -39 16 29 -4 59 -40 59 -20 0 -31 -6
-35 -20z"/>
<path d="M4546 3031 c-4 -5 2 -7 13 -4 14 3 21 -3 29 -24 6 -15 11 -21 11 -11
2 28 -10 48 -29 48 -11 0 -21 -4 -24 -9z"/>
<path d="M4400 2990 c-27 -27 -25 -46 4 -65 45 -30 91 16 61 61 -19 29 -39 30
-65 4z"/>
<path d="M4402 2838 c-27 -27 -6 -68 35 -68 27 0 38 20 29 55 -7 27 -42 35
-64 13z"/>
<path d="M4415 2673 c0 -36 12 -54 30 -47 35 14 24 74 -14 74 -11 0 -16 -9
-16 -27z"/>
<path d="M4541 2592 c-1 -7 -12 -17 -26 -22 -16 -6 -35 -31 -56 -71 -150 -299
-340 -479 -613 -585 -88 -33 -50 -29 58 7 220 73 394 209 524 408 57 87 127
243 118 264 -3 9 -5 9 -5 -1z"/>
<path d="M2953 3355 c0 -22 2 -30 4 -17 2 12 2 30 0 40 -3 9 -5 -1 -4 -23z"/>
<path d="M371 2514 c0 -11 3 -14 6 -6 3 7 2 16 -1 19 -3 4 -6 -2 -5 -13z"/>
<path d="M634 2475 c-24 -36 -6 -75 34 -75 51 0 71 50 34 83 -26 24 -49 21
-68 -8z"/>
<path d="M502 2403 c-41 -16 -30 -88 16 -100 19 -4 30 0 44 17 22 27 23 39 2
68 -15 21 -35 26 -62 15z"/>
<path d="M702 2344 c-39 -27 -23 -84 24 -84 46 0 59 60 19 86 -18 12 -24 11
-43 -2z"/>
<path d="M781 2314 c0 -11 3 -14 6 -6 3 7 2 16 -1 19 -3 4 -6 -2 -5 -13z"/>
<path d="M570 2252 c-35 -12 -40 -59 -11 -86 37 -33 94 10 71 54 -13 24 -40
39 -60 32z"/>
<path d="M650 2092 c-29 -24 -21 -67 15 -84 21 -9 28 -8 45 7 25 23 25 50 0
75 -25 25 -32 25 -60 2z"/>
<path d="M752 1958 c-15 -15 -16 -50 0 -66 7 -7 25 -12 40 -12 53 0 50 81 -3
88 -13 2 -30 -3 -37 -10z"/>
<path d="M877 1853 c-15 -15 -6 -63 13 -73 43 -23 83 17 60 60 -10 19 -58 28
-73 13z"/>
<path d="M1022 1778 c-35 -35 13 -102 57 -78 12 6 22 18 23 28 4 54 3 56 -32
59 -19 2 -41 -2 -48 -9z"/>
<path d="M2258 1233 c7 -3 16 -2 19 1 4 3 -2 6 -13 5 -11 0 -14 -3 -6 -6z"/>
<path d="M2056 1157 c3 -10 9 -15 12 -12 3 3 0 11 -7 18 -10 9 -11 8 -5 -6z"/>
<path d="M1635 1890 c-3 -5 -1 -10 4 -10 6 0 11 5 11 10 0 6 -2 10 -4 10 -3 0
-8 -4 -11 -10z"/>
</g>
</svg>
