<?xml version="1.0" standalone="no"?>
<!DOCTYPE svg PUBLIC "-//W3C//DTD SVG 20010904//EN"
 "http://www.w3.org/TR/2001/REC-SVG-20010904/DTD/svg10.dtd">
<svg version="1.0" xmlns="http://www.w3.org/2000/svg"
 viewBox="0 0 512.000000 512.000000"
 preserveAspectRatio="xMidYMid meet">
<metadata>
Created by potrace 1.16, written by Peter Selinger 2001-2019
</metadata>
<g transform="translate(0.000000,512.000000) scale(0.100000,-0.100000)"
fill="#000" stroke="none">
<path d="M2955 4238 c-3 -7 -6 -60 -7 -118 l-3 -105 -715 -6 c-774 -6 -747 -4
-920 -64 -224 -77 -432 -267 -550 -505 -92 -182 -121 -316 -119 -544 2 -193 5
-208 46 -221 18 -5 33 -13 33 -17 0 -20 19 -5 29 23 6 17 15 28 20 25 5 -4 14
2 20 11 8 14 12 16 22 6 17 -17 54 -16 68 1 7 8 14 58 16 113 10 261 155 502
391 649 87 54 209 99 309 114 39 5 357 13 708 16 l637 7 0 -92 c0 -99 10 -131
39 -131 17 0 401 251 539 352 82 60 80 63 -125 208 -97 69 -229 162 -292 207
-117 83 -138 93 -146 71z"/>
<path d="M4070 3281 c0 -6 4 -13 10 -16 6 -3 7 1 4 9 -7 18 -14 21 -14 7z"/>
<path d="M4136 3263 c-6 -14 -5 -15 5 -6 7 7 10 15 7 18 -3 3 -9 -2 -12 -12z"/>
<path d="M4252 3268 c-25 -25 -7 -68 29 -68 9 0 22 7 29 15 10 12 9 20 -4 40
-18 27 -35 32 -54 13z"/>
<path d="M4130 3175 c-10 -12 -9 -20 4 -40 9 -14 19 -25 22 -25 17 0 44 23 44
38 0 38 -46 56 -70 27z"/>
<path d="M1920 2930 l0 -250 70 0 69 0 3 147 3 148 59 -98 c33 -54 63 -100 68
-103 20 -13 47 13 98 96 30 49 58 89 63 90 4 0 7 -63 7 -140 l0 -140 65 0 65
0 0 250 0 250 -72 0 -73 -1 -61 -101 c-33 -56 -65 -103 -70 -105 -5 -2 -38 44
-73 102 l-63 105 -79 0 -79 0 0 -250z"/>
<path d="M2590 3007 c0 -96 -3 -208 -6 -250 l-7 -77 146 0 c168 0 230 16 284
72 54 57 68 95 68 183 0 89 -12 120 -66 173 -57 56 -120 72 -279 72 l-140 0 0
-173z m291 40 c40 -27 61 -77 54 -131 -12 -88 -60 -126 -159 -126 l-56 0 0
140 0 140 64 0 c49 0 71 -5 97 -23z"/>
<path d="M4286 3123 c-4 -9 -2 -31 5 -50 8 -25 16 -33 34 -33 32 0 44 26 33
68 -7 27 -13 32 -37 32 -18 0 -31 -6 -35 -17z"/>
<path d="M4164 3056 c-15 -40 21 -80 54 -60 37 24 21 74 -25 74 -13 0 -26 -6
-29 -14z"/>
<path d="M4316 2974 c-19 -18 -20 -28 -6 -55 20 -36 70 -17 70 26 0 41 -36 58
-64 29z"/>
<path d="M4192 2938 c-19 -19 -15 -66 7 -73 42 -13 72 25 51 65 -12 22 -40 26
-58 8z"/>
<path d="M4321 2846 c-19 -20 -21 -28 -12 -45 23 -42 50 -16 51 47 0 28 -11
28 -39 -2z"/>
<path d="M4187 2813 c-13 -12 -7 -60 8 -73 38 -31 88 33 53 68 -13 13 -50 16
-61 5z"/>
<path d="M4265 2680 c-13 -15 -21 -17 -31 -9 -21 18 -66 7 -75 -19 -7 -18 -4
-28 16 -46 34 -32 28 -73 -18 -128 -20 -24 -37 -53 -37 -64 0 -12 -7 -27 -15
-34 -8 -7 -15 -19 -15 -26 0 -8 -9 -14 -20 -14 -11 0 -20 -4 -20 -9 0 -17
-137 -150 -175 -169 -22 -11 -64 -36 -94 -56 -55 -37 -77 -45 -66 -23 4 6 0 4
-8 -6 -9 -10 -30 -30 -49 -44 l-33 -25 39 7 c64 11 184 63 259 111 84 55 208
176 266 263 92 136 151 300 110 308 -8 2 -24 -5 -34 -17z"/>
<path d="M825 2650 c-26 -29 -7 -70 33 -70 49 0 69 42 36 74 -21 22 -47 20
-69 -4z"/>
<path d="M695 2617 c-23 -19 -25 -26 -16 -49 15 -39 58 -48 83 -18 23 29 23
45 -2 70 -25 25 -33 25 -65 -3z"/>
<path d="M2200 2565 c0 -4 46 -56 102 -116 117 -124 131 -130 184 -73 19 19
34 39 34 42 0 4 -30 37 -67 74 l-68 66 -92 6 c-51 4 -93 4 -93 1z"/>
<path d="M2743 2559 c-11 -4 -47 -38 -81 -77 l-62 -70 40 -36 c22 -20 49 -36
59 -36 17 0 221 203 221 220 0 8 -155 7 -177 -1z"/>
<path d="M2484 2549 c-6 -10 62 -89 78 -89 17 0 78 63 78 81 0 17 -8 19 -74
19 -43 0 -78 -5 -82 -11z"/>
<path d="M867 2522 c-22 -24 -21 -35 2 -56 39 -35 85 1 63 48 -14 30 -42 34
-65 8z"/>
<path d="M732 2468 c-28 -28 -7 -78 33 -78 12 0 26 5 33 12 7 7 12 21 12 33 0
12 -5 26 -12 33 -7 7 -21 12 -33 12 -12 0 -26 -5 -33 -12z"/>
<path d="M918 2409 c-24 -13 -23 -42 2 -64 42 -38 94 19 54 59 -18 18 -32 20
-56 5z"/>
<path d="M4230 2340 c-6 -11 -8 -20 -6 -20 3 0 10 9 16 20 6 11 8 20 6 20 -3
0 -10 -9 -16 -20z"/>
<path d="M790 2330 c-28 -28 -9 -70 32 -70 40 0 59 41 33 70 -23 25 -40 25
-65 0z"/>
<path d="M986 2284 c-21 -20 -20 -37 2 -57 22 -20 43 -22 60 -5 17 17 15 42
-6 61 -23 21 -36 21 -56 1z"/>
<path d="M1850 2104 c-113 -74 -253 -165 -312 -204 -60 -38 -108 -73 -108 -77
0 -4 4 -13 8 -19 17 -25 619 -458 637 -458 19 -1 20 6 23 117 l3 117 643 0
c663 0 785 5 923 40 116 30 270 110 350 183 72 64 78 74 64 96 -7 11 -12 11
-31 -2 -21 -14 -60 -13 -60 3 0 4 7 13 15 20 14 12 13 16 -7 37 -12 13 -28 21
-35 19 -7 -3 -13 2 -13 11 0 9 -3 14 -6 10 -4 -3 -14 3 -23 15 l-17 20 -97
-38 c-54 -21 -93 -40 -87 -42 5 -2 8 -8 5 -13 -4 -5 -13 -4 -23 2 -12 7 -41 6
-97 -5 -87 -15 -283 -14 -475 5 -58 5 -247 12 -420 16 -173 3 -324 9 -334 13
-11 4 41 10 115 13 74 4 145 10 159 14 l25 7 -25 7 c-14 4 -143 7 -287 8
l-263 1 0 49 c0 101 -12 171 -29 170 -9 0 -108 -61 -221 -135z m2155 -234 c3
-5 -1 -10 -9 -10 -9 0 -16 5 -16 10 0 6 4 10 9 10 6 0 13 -4 16 -10z"/>
<path d="M869 2211 c-21 -17 -22 -21 -10 -44 18 -34 39 -41 67 -22 29 19 30
39 4 65 -25 25 -32 25 -61 1z"/>
<path d="M1072 2178 c-32 -32 7 -90 47 -69 27 15 32 35 15 60 -17 23 -44 27
-62 9z"/>
<path d="M982 2094 c-29 -20 -28 -50 2 -69 20 -13 29 -14 46 -5 27 14 24 57
-5 76 -18 12 -24 11 -43 -2z"/>
<path d="M1176 2084 c-31 -30 -8 -69 36 -62 30 4 38 46 12 65 -23 17 -29 16
-48 -3z"/>
<path d="M1284 2006 c-12 -31 0 -51 31 -51 27 0 30 3 30 30 0 25 -4 30 -28 33
-17 2 -29 -2 -33 -12z"/>
<path d="M1087 1993 c-30 -29 26 -90 58 -63 18 15 20 41 3 58 -13 13 -50 16
-61 5z"/>
<path d="M4023 1915 c-3 -9 -3 -18 -1 -21 3 -3 8 4 11 16 6 23 -1 27 -10 5z"/>
<path d="M1078 633 c6 -2 18 -2 25 0 6 3 1 5 -13 5 -14 0 -19 -2 -12 -5z"/>
</g>
</svg>
